<svg width="48" height="48" viewBox="0 0 48 48" fill="none" xmlns="http://www.w3.org/2000/svg">
<path d="M23.9455 48C20.0014 48 16.0892 47.0263 12.6306 45.1847C11.8221 44.7541 11.5162 43.7506 11.9483 42.9434C12.3803 42.1367 13.3867 41.8326 14.1947 42.2626C17.1731 43.8493 20.5452 44.688 23.9455 44.688C25.5433 44.688 27.1352 44.506 28.6758 44.1475C29.5704 43.9394 30.4618 44.4932 30.6698 45.3842C30.8784 46.2752 30.3233 47.1661 29.4303 47.3737C27.6422 47.7893 25.7968 48 23.9455 48Z" fill="#3D1A71"/>
<path d="M8.54576 41.879C8.13562 41.879 7.72548 41.7286 7.40464 41.425C4.02352 38.2298 1.65946 34.1671 0.567533 29.6766C0.3515 28.7877 0.898533 27.892 1.78993 27.6764C2.6808 27.4609 3.57862 28.0072 3.79465 28.896C4.73471 32.7645 6.77311 36.2654 9.68795 39.0205C10.3537 39.6495 10.382 40.6978 9.75105 41.3621C9.42486 41.7056 8.98584 41.879 8.54576 41.879Z" fill="#3D1A71"/>
<path d="M1.66213 23.4313C1.60759 23.4313 1.55251 23.4286 1.4969 23.4233C0.584644 23.3336 -0.0821685 22.5227 0.00820144 21.612C0.274499 18.9252 0.987298 16.3244 2.12682 13.882C2.51396 13.0524 3.50108 12.6922 4.33259 13.0796C5.16357 13.4658 5.52398 14.4512 5.13683 15.2803C4.15506 17.3834 3.54172 19.6236 3.31232 21.938C3.22783 22.7927 2.50541 23.4313 1.66213 23.4313Z" fill="#3D1A71"/>
<path d="M8.62597 9.40367C8.2554 9.40367 7.88215 9.28043 7.57361 9.02754C6.86509 8.44708 6.76242 7.403 7.34421 6.69663C7.49233 6.51631 7.64259 6.33865 7.79606 6.16312C8.39764 5.47329 9.44678 5.40073 10.1382 6.00253C10.8296 6.60327 10.9018 7.64948 10.2991 8.33931C10.1671 8.4903 10.0377 8.64395 9.90986 8.79867C9.58154 9.1972 9.10562 9.40367 8.62597 9.40367Z" fill="#3D1A71"/>
<path d="M35.4338 44.8411C34.8691 44.8411 34.3188 44.5535 34.0076 44.0355C33.5365 43.2507 33.7927 42.2333 34.5793 41.7638C40.8094 38.042 44.6798 31.2355 44.6798 24.0005C44.6798 12.5935 35.3782 3.3131 23.945 3.3131C23.0279 3.3131 22.2847 2.57152 22.2847 1.65655C22.2847 0.741581 23.0279 0 23.945 0C37.2091 0 48 10.7663 48 24C48 32.3937 43.5109 40.2892 36.2845 44.6053C36.0177 44.7653 35.7241 44.8411 35.4338 44.8411Z" fill="#3D1A71"/>
<path d="M35.1659 22.4299H25.6546V12.9403H22.3344V22.4299H12.8231V25.7424H22.3344V35.232H25.6546V25.7424H35.1659V22.4299Z" fill="#3D1A71"/>
</svg>
