<svg width="50" height="50" viewBox="0 0 50 50" fill="none" xmlns="http://www.w3.org/2000/svg">
<path d="M16.1713 10.1756C13.7124 10.9312 11.9532 12.273 10.9998 14.036C10.0476 15.7968 9.93225 17.8515 10.3358 19.9212C11.142 24.0561 13.9964 28.4814 17.5887 32.1559C21.1808 35.8302 25.526 38.7866 29.6877 39.6496C31.7716 40.0817 33.8618 39.9705 35.6752 39.0211C37.4906 38.0704 38.9229 36.3036 39.8086 33.802L39.8089 33.8012C39.9015 33.5353 39.9017 33.246 39.8095 32.98C39.7173 32.714 39.538 32.4868 39.3007 32.3353L39.2996 32.3346L31.5418 27.469L31.5374 27.4646L31.5261 27.4534L31.5128 27.4446C31.4715 27.4175 31.4287 27.3928 31.3845 27.3707C31.2555 27.2884 31.1125 27.2305 30.9625 27.1999L30.9479 27.1969L30.933 27.1967C30.9267 27.1966 30.9204 27.1965 30.9141 27.1965C30.8882 27.1908 30.8622 27.1858 30.836 27.1817L30.8243 27.1799L30.8124 27.1798H30.7987C30.5917 27.1685 30.3851 27.2089 30.1975 27.2973L30.1962 27.2979C30.13 27.3298 30.0668 27.3675 30.0072 27.4105C29.9692 27.4332 29.9323 27.4579 29.8968 27.4846L29.8768 27.4997L29.8623 27.5202C29.8534 27.5328 29.8447 27.5455 29.8364 27.5584C29.7957 27.5945 29.7575 27.6333 29.7219 27.6745L28.1034 29.3092C25.1309 27.782 22.8206 25.2571 20.7351 21.842L22.2106 20.3824C22.2419 20.3543 22.2717 20.3246 22.3 20.2934C22.3251 20.2702 22.3492 20.2459 22.3723 20.2206L22.4138 20.1753L22.4139 20.1637C22.4229 20.1545 22.4318 20.1451 22.4405 20.1355L22.482 20.0902L22.4822 20.0604C22.4902 20.0526 22.498 20.0446 22.5058 20.0366L22.5251 20.0165L22.5366 19.9911C22.5509 19.9591 22.564 19.9265 22.5757 19.8934L22.5845 19.8682L22.5846 19.8619C22.5976 19.8376 22.6099 19.8129 22.6214 19.7879L22.6278 19.7739L22.6314 19.759C22.6392 19.7267 22.6457 19.6941 22.6509 19.6613L22.6528 19.6494L22.6529 19.6374V19.6358C22.6596 19.6026 22.6649 19.5693 22.6688 19.5357L22.6699 19.527L22.6699 19.5182V19.5032C22.6711 19.4727 22.6711 19.4422 22.6699 19.4116V19.401C22.671 19.371 22.6711 19.3409 22.67 19.3108C22.6701 19.2993 22.6701 19.2879 22.6699 19.2764L22.6698 19.265L22.668 19.2538C22.6638 19.2274 22.6588 19.2012 22.6529 19.1752L22.6527 19.1554L22.6476 19.136C22.6313 19.0739 22.6102 19.0132 22.5846 18.9544L22.5845 18.9398L22.5725 18.9109C22.5508 18.8588 22.5256 18.8081 22.4971 18.7593L22.4824 18.7301L22.4711 18.7077L22.4534 18.6898C22.4519 18.6882 22.4504 18.6867 22.4488 18.6851L17.6016 10.7255C17.6015 10.7254 17.6014 10.7252 17.6014 10.7251C17.4933 10.5455 17.3419 10.396 17.161 10.2901C16.9953 10.1932 16.8098 10.1359 16.6188 10.1222V10.1L16.4429 10.1175C16.3505 10.1268 16.2594 10.1462 16.1713 10.1756ZM18.2724 20.7654L18.2713 20.7665C18.0783 20.9612 17.9546 21.214 17.9193 21.4859C17.8839 21.7578 17.939 22.0338 18.0758 22.2714L18.0759 22.2716C20.6078 26.6561 23.6193 30.0876 27.8489 31.9517C28.0788 32.0537 28.3341 32.0841 28.5815 32.0388C28.8291 31.9934 29.0573 31.8745 29.2362 31.6974L29.2368 31.6968L30.9025 30.0311L37.085 33.8952C36.3958 35.3879 35.5149 36.2739 34.521 36.7943C33.3372 37.4142 31.8801 37.5377 30.1959 37.1885C26.8222 36.4889 22.7213 33.8273 19.3687 30.3979C16.0159 26.9685 13.4358 22.8115 12.7806 19.4507C12.4535 17.7733 12.6017 16.348 13.2074 15.2279L13.0667 15.1518L13.2074 15.2279C13.7137 14.2918 14.5665 13.4782 16.0006 12.8799L19.8362 19.2177L18.2724 20.7654Z" fill="#3D1A71" stroke="#3D1A71" stroke-width="0.32"/>
<path d="M1.95024 47.0352L1.95022 47.0352C1.87576 47.2839 1.87134 47.5483 1.93746 47.7993C2.00358 48.0504 2.13767 48.2782 2.32495 48.458C2.51222 48.6377 2.74546 48.7623 2.99901 48.818C3.25257 48.8737 3.51656 48.8584 3.76193 48.7737L3.76197 48.7737L12.3861 45.7974C16.0581 48.032 20.3853 49.32 25 49.32C38.4207 49.32 49.32 38.4206 49.32 25C49.32 11.5793 38.4207 0.68 25 0.68C11.5846 0.68 0.68 11.5789 0.68 25C0.68 29.8257 2.09513 34.3392 4.59179 38.22L1.95024 47.0352ZM7.48402 38.3978L7.17749 38.3059L7.48402 38.3978C7.54429 38.1966 7.5589 37.9846 7.52679 37.7771C7.49468 37.5696 7.41665 37.3718 7.2984 37.1983L7.03397 37.3785L7.29839 37.1983C4.86814 33.6325 3.5015 29.4827 3.5015 25C3.5015 13.1117 13.117 3.5015 25 3.5015C36.8886 3.5015 46.4985 13.1113 46.4985 25C46.4985 36.8886 36.8886 46.4985 25 46.4985C20.6897 46.4985 16.6822 45.2345 13.3314 43.0603C13.1516 42.9437 12.9475 42.8694 12.7347 42.8434C12.5218 42.8174 12.3059 42.8403 12.1033 42.9102L12.2076 43.2127L12.1032 42.9102L5.44319 45.2087L7.48402 38.3978Z" fill="#3D1A71" stroke="#3D1A71" stroke-width="0.64"/>
</svg>
